ply
format ascii 1.0
comment created by gply, a Houdini tool.
comment converted from .[b]geo
comment for more information about Houdini, try:
comment www.sidefx.com
element vertex 128
property float x
property float y
property float z
element face 240
property list uchar int vertex_indices
end_header
0.0350000001 0.0755830705 0.351269752 
0.0350000001 0.0794985443 0.326548398 
0.0350000001 0.0908617079 0.304246932 
0.0350000001 0.108560249 0.286548376 
0.0350000001 0.130861714 0.275185227 
0.0350000001 0.155583069 0.271269739 
0.0350000001 0.180304438 0.275185227 
0.0350000001 0.202605873 0.286548376 
0.0350000001 0.22030443 0.304246932 
0.0350000001 0.231667593 0.326548398 
0.0350000001 0.235583067 0.351269752 
0.0350000001 0.231667593 0.375991106 
0.0350000001 0.22030443 0.398292601 
0.0350000001 0.202605873 0.415991127 
0.0350000001 0.180304438 0.427354276 
0.0350000001 0.155583069 0.431269765 
0.0350000001 0.1308617 0.427354276 
0.0350000001 0.108560234 0.415991098 
0.0350000001 0.090861693 0.398292542 
0.0350000001 0.0794985443 0.375991106 
-0.0350000001 0.0755830705 0.351269752 
-0.0350000001 0.0794985443 0.326548398 
-0.0350000001 0.0908617079 0.304246932 
-0.0350000001 0.108560249 0.286548376 
-0.0350000001 0.130861714 0.275185227 
-0.0350000001 0.155583069 0.271269739 
-0.0350000001 0.180304438 0.275185227 
-0.0350000001 0.202605873 0.286548376 
-0.0350000001 0.22030443 0.304246932 
-0.0350000001 0.231667593 0.326548398 
-0.0350000001 0.235583067 0.351269752 
-0.0350000001 0.231667593 0.375991106 
-0.0350000001 0.22030443 0.398292601 
-0.0350000001 0.202605873 0.415991127 
-0.0350000001 0.180304438 0.427354276 
-0.0350000001 0.155583069 0.431269765 
-0.0350000001 0.1308617 0.427354276 
-0.0350000001 0.108560234 0.415991098 
-0.0350000001 0.090861693 0.398292542 
-0.0350000001 0.0794985443 0.375991106 
0.0500000007 0 0.100000001 
0.0475528277 0.0154508501 0.100000001 
0.0404508524 0.0293892622 0.100000001 
0.0293892622 0.0404508524 0.100000001 
0.0154508492 0.0475528277 0.100000001 
-2.1855695e-09 0.0500000007 0.100000001 
-0.015450852 0.047552824 0.100000001 
-0.0293892603 0.0404508524 0.100000001 
-0.0404508524 0.0293892603 0.100000001 
-0.0475528315 0.0154508399 0.100000001 
-0.0500000007 -4.37113901e-09 0.100000001 
-0.0475528277 -0.0154508492 0.100000001 
-0.0404508486 -0.0293892678 0.100000001 
-0.0293892529 -0.0404508561 0.100000001 
-0.0154508548 -0.047552824 0.100000001 
5.96244054e-10 -0.0500000007 0.100000001 
0.0154508566 -0.047552824 0.100000001 
0.0293892752 -0.0404508412 0.100000001 
0.0404508635 -0.0293892473 0.100000001 
0.0475528277 -0.0154508473 0.100000001 
0.100000001 0 0 
0.0951056555 0.0309017003 0 
0.0809017047 0.0587785244 0 
0.0587785244 0.0809017047 0 
0.0309016984 0.0951056555 0 
-4.37113901e-09 0.100000001 0 
-0.030901704 0.095105648 0 
-0.0587785207 0.0809017047 0 
-0.0809017047 0.0587785207 0 
-0.0951056629 0.0309016798 0 
-0.100000001 -8.74227801e-09 0 
-0.0951056555 -0.0309016984 0 
-0.0809016973 -0.0587785356 0 
-0.0587785058 -0.0809017122 0 
-0.0309017096 -0.095105648 0 
1.19248811e-09 -0.100000001 0 
0.0309017133 -0.095105648 0 
0.0587785505 -0.0809016824 0 
0.0809017271 -0.0587784946 0 
0.0951056555 -0.0309016947 0 
-0.0500000007 -0.075000003 0.100000001 
0.0500000007 -0.075000003 0.100000001 
0.0500000007 -0.075000003 0.400000006 
-0.0500000007 -0.075000003 0.400000006 
-0.0500000007 0.075000003 0.100000001 
0.0500000007 0.075000003 0.100000001 
0.0500000007 0.075000003 0.400000006 
-0.0500000007 0.075000003 0.400000006 
0.0350000001 0.0755830705 0.151269749 
0.0350000001 0.0794985443 0.126548395 
0.0350000001 0.0908617079 0.104246929 
0.0350000001 0.108560249 0.086548388 
0.0350000001 0.130861714 0.0751852244 
0.0350000001 0.155583069 0.0712697506 
0.0350000001 0.180304438 0.0751852319 
0.0350000001 0.202605873 0.086548388 
0.0350000001 0.22030443 0.104246937 
0.0350000001 0.231667593 0.126548409 
0.0350000001 0.235583067 0.151269749 
0.0350000001 0.231667593 0.175991103 
0.0350000001 0.22030443 0.198292583 
0.0350000001 0.202605873 0.21599111 
0.0350000001 0.180304438 0.227354258 
0.0350000001 0.155583069 0.231269747 
0.0350000001 0.1308617 0.227354258 
0.0350000001 0.108560234 0.215991095 
0.0350000001 0.090861693 0.198292539 
0.0350000001 0.0794985443 0.175991103 
-0.0350000001 0.0755830705 0.151269749 
-0.0350000001 0.0794985443 0.126548395 
-0.0350000001 0.0908617079 0.104246929 
-0.0350000001 0.108560249 0.086548388 
-0.0350000001 0.130861714 0.0751852244 
-0.0350000001 0.155583069 0.0712697506 
-0.0350000001 0.180304438 0.0751852319 
-0.0350000001 0.202605873 0.086548388 
-0.0350000001 0.22030443 0.104246937 
-0.0350000001 0.231667593 0.126548409 
-0.0350000001 0.235583067 0.151269749 
-0.0350000001 0.231667593 0.175991103 
-0.0350000001 0.22030443 0.198292583 
-0.0350000001 0.202605873 0.21599111 
-0.0350000001 0.180304438 0.227354258 
-0.0350000001 0.155583069 0.231269747 
-0.0350000001 0.1308617 0.227354258 
-0.0350000001 0.108560234 0.215991095 
-0.0350000001 0.090861693 0.198292539 
-0.0350000001 0.0794985443 0.175991103 
3 10 9 8 
3 29 30 31 
3 0 1 21 
3 1 2 22 
3 2 3 23 
3 3 4 24 
3 4 5 25 
3 5 6 26 
3 6 7 27 
3 7 8 28 
3 8 9 29 
3 9 10 30 
3 10 11 31 
3 11 12 32 
3 12 13 33 
3 13 14 34 
3 14 15 35 
3 15 16 36 
3 16 17 37 
3 17 18 38 
3 18 19 39 
3 19 0 20 
3 50 49 48 
3 69 70 71 
3 40 41 61 
3 41 42 62 
3 42 43 63 
3 43 44 64 
3 44 45 65 
3 45 46 66 
3 46 47 67 
3 47 48 68 
3 48 49 69 
3 49 50 70 
3 50 51 71 
3 51 52 72 
3 52 53 73 
3 53 54 74 
3 54 55 75 
3 55 56 76 
3 56 57 77 
3 57 58 78 
3 58 59 79 
3 59 40 60 
3 81 85 84 
3 82 86 85 
3 83 87 86 
3 80 84 87 
3 82 81 80 
3 85 86 87 
3 98 97 96 
3 117 118 119 
3 88 89 109 
3 89 90 110 
3 90 91 111 
3 91 92 112 
3 92 93 113 
3 93 94 114 
3 94 95 115 
3 95 96 116 
3 96 97 117 
3 97 98 118 
3 98 99 119 
3 99 100 120 
3 100 101 121 
3 101 102 122 
3 102 103 123 
3 103 104 124 
3 104 105 125 
3 105 106 126 
3 106 107 127 
3 107 88 108 
3 108 127 107 
3 127 126 106 
3 126 125 105 
3 125 124 104 
3 124 123 103 
3 123 122 102 
3 122 121 101 
3 121 120 100 
3 120 119 99 
3 119 118 98 
3 118 117 97 
3 117 116 96 
3 116 115 95 
3 115 114 94 
3 114 113 93 
3 113 112 92 
3 112 111 91 
3 111 110 90 
3 110 109 89 
3 109 108 88 
3 108 109 127 
3 109 110 127 
3 110 126 127 
3 110 111 126 
3 111 125 126 
3 111 112 125 
3 112 124 125 
3 112 113 124 
3 113 123 124 
3 113 114 123 
3 114 122 123 
3 114 115 122 
3 115 121 122 
3 115 116 121 
3 116 120 121 
3 116 117 120 
3 117 119 120 
3 107 106 88 
3 106 105 88 
3 105 89 88 
3 105 104 89 
3 104 90 89 
3 104 103 90 
3 103 91 90 
3 103 102 91 
3 102 92 91 
3 102 101 92 
3 101 93 92 
3 101 100 93 
3 100 94 93 
3 100 99 94 
3 99 95 94 
3 99 98 95 
3 98 96 95 
3 87 84 85 
3 80 83 82 
3 87 83 80 
3 86 82 83 
3 85 81 82 
3 84 80 81 
3 60 79 59 
3 79 78 58 
3 78 77 57 
3 77 76 56 
3 76 75 55 
3 75 74 54 
3 74 73 53 
3 73 72 52 
3 72 71 51 
3 71 70 50 
3 70 69 49 
3 69 68 48 
3 68 67 47 
3 67 66 46 
3 66 65 45 
3 65 64 44 
3 64 63 43 
3 63 62 42 
3 62 61 41 
3 61 60 40 
3 60 61 79 
3 61 62 79 
3 62 78 79 
3 62 63 78 
3 63 77 78 
3 63 64 77 
3 64 76 77 
3 64 65 76 
3 65 75 76 
3 65 66 75 
3 66 74 75 
3 66 67 74 
3 67 73 74 
3 67 68 73 
3 68 72 73 
3 68 69 72 
3 69 71 72 
3 59 58 40 
3 58 57 40 
3 57 41 40 
3 57 56 41 
3 56 42 41 
3 56 55 42 
3 55 43 42 
3 55 54 43 
3 54 44 43 
3 54 53 44 
3 53 45 44 
3 53 52 45 
3 52 46 45 
3 52 51 46 
3 51 47 46 
3 51 50 47 
3 50 48 47 
3 20 39 19 
3 39 38 18 
3 38 37 17 
3 37 36 16 
3 36 35 15 
3 35 34 14 
3 34 33 13 
3 33 32 12 
3 32 31 11 
3 31 30 10 
3 30 29 9 
3 29 28 8 
3 28 27 7 
3 27 26 6 
3 26 25 5 
3 25 24 4 
3 24 23 3 
3 23 22 2 
3 22 21 1 
3 21 20 0 
3 20 21 39 
3 21 22 39 
3 22 38 39 
3 22 23 38 
3 23 37 38 
3 23 24 37 
3 24 36 37 
3 24 25 36 
3 25 35 36 
3 25 26 35 
3 26 34 35 
3 26 27 34 
3 27 33 34 
3 27 28 33 
3 28 32 33 
3 28 29 32 
3 29 31 32 
3 19 18 0 
3 18 17 0 
3 17 1 0 
3 17 16 1 
3 16 2 1 
3 16 15 2 
3 15 3 2 
3 15 14 3 
3 14 4 3 
3 14 13 4 
3 13 5 4 
3 13 12 5 
3 12 6 5 
3 12 11 6 
3 11 7 6 
3 11 10 7 
3 10 8 7 
